<?xml version="1.0" standalone="no"?><!DOCTYPE svg PUBLIC "-//W3C//DTD SVG 1.1//EN" "http://www.w3.org/Graphics/SVG/1.1/DTD/svg11.dtd"><svg t="1588941497707" class="icon" viewBox="0 0 1024 1024" version="1.1" xmlns="http://www.w3.org/2000/svg" p-id="8237" xmlns:xlink="http://www.w3.org/1999/xlink" width="200" height="200"><defs><style type="text/css"></style></defs><path d="M235.008 111.616c-51.2 0-92.16 41.472-92.16 92.16s41.472 92.16 92.16 92.16c51.2 0 92.16-41.472 92.16-92.16 0-51.2-41.472-92.16-92.16-92.16z m203.776 401.408l83.456-29.184 6.656-2.048 6.144 3.584 62.976 39.424L650.24 375.808l8.192-22.528 16.384 17.408 47.616 50.688 69.632-119.808 25.088 14.848-79.36 136.704-9.728 16.896-13.312-14.336-44.544-47.616-50.176 143.872-6.144 17.408-15.36-9.728-72.704-45.568-76.8 26.624-10.24-27.648z m15.36 363.52h282.112v49.664H454.144v-49.664z m177.664-160.768h303.104v-578.56H374.784v58.88h501.76v461.312H398.848v58.88h152.576v145.408h80.384v-145.92zM77.312 559.616l58.368 44.032-18.944 323.072h84.48l14.336-275.456h35.84l17.408 275.456H348.16l-12.288-323.072-6.656-197.12 193.024-3.072 41.472-73.216-217.088-10.24H248.832l7.168 12.288-9.728 19.456 20.992 148.48-32.256 33.28v2.56l-1.024-1.536-1.536 1.536v-2.56L199.68 499.712l20.992-148.48-9.728-19.456 7.168-12.288H121.856l-44.544 240.128z" fill="#bfbfbf" p-id="8238"></path></svg>