<?xml version="1.0" standalone="no"?><!DOCTYPE svg PUBLIC "-//W3C//DTD SVG 1.1//EN" "http://www.w3.org/Graphics/SVG/1.1/DTD/svg11.dtd"><svg t="1588940743850" class="icon" viewBox="0 0 1024 1024" version="1.1" xmlns="http://www.w3.org/2000/svg" p-id="929" xmlns:xlink="http://www.w3.org/1999/xlink" width="200" height="200"><defs><style type="text/css"></style></defs><path d="M520.738133 448.785067v246.5792a26.2144 26.2144 0 0 1-52.394666 0v-246.5792l-41.745067 45.909333a26.180267 26.180267 0 1 1-38.775467-35.2256l87.313067-96.0512a26.112 26.112 0 0 1 38.775467 0l87.313066 96.0512a26.2144 26.2144 0 0 1-38.741333 35.2256l-41.745067-45.909333zM215.9616 188.928c-14.916267 0-27.0336 10.308267-27.0336 23.005867V812.032c0 12.6976 12.117333 23.005867 27.0336 23.005867h583.338667c14.916267 0 27.0336-10.308267 27.0336-23.005867V297.984c0-12.663467-12.117333-23.005867-27.0336-23.005867H524.970667a80.452267 80.452267 0 0 1-62.805334-29.218133l-38.2976-46.8992a28.706133 28.706133 0 0 0-22.186666-9.9328h-185.685334zM799.300267 887.466667H215.9616C172.168533 887.466667 136.533333 853.640533 136.533333 812.066133V211.968C136.533333 170.325333 172.168533 136.533333 215.9616 136.533333h185.685333c24.7808 0 47.684267 10.6496 62.805334 29.218134L502.784 212.650667a28.672 28.672 0 0 0 22.2208 9.9328h274.3296c43.793067 0 79.428267 33.792 79.428267 75.400533v514.082133C878.728533 853.674667 843.093333 887.466667 799.300267 887.466667z" p-id="930"></path></svg>