<?xml version="1.0" standalone="no"?><!DOCTYPE svg PUBLIC "-//W3C//DTD SVG 1.1//EN" "http://www.w3.org/Graphics/SVG/1.1/DTD/svg11.dtd"><svg t="1589892340933" class="icon" viewBox="0 0 1024 1024" version="1.1" xmlns="http://www.w3.org/2000/svg" p-id="2512" xmlns:xlink="http://www.w3.org/1999/xlink" width="200" height="200"><defs><style type="text/css"></style></defs><path d="M776.192 537.22624H486.72256a4.5312 4.5312 0 0 1-4.5312-4.52096v-289.1264a72.00256 72.00256 0 0 0-24.15616-53.76 72.86784 72.86784 0 0 0-56.79616-17.84832 402.01216 402.01216 0 0 0-354.87232 414.67392C54.272 795.09504 224 964.608 432.7168 972.50816q7.79264 0.29184 15.54432 0.29184a402.16064 402.16064 0 0 0 399.65184-354.7136 72.29952 72.29952 0 0 0-71.72096-80.86016zM447.95904 905.216c-4.1984 0-8.44288-0.08192-12.66688-0.24064A334.18752 334.18752 0 0 1 409.088 239.104a5.83168 5.83168 0 0 1 0.6656-0.04096 4.864 4.864 0 0 1 3.29216 1.24416 4.16256 4.16256 0 0 1 1.47456 3.28192v289.1264a72.23296 72.23296 0 0 0 72.192 72.10496H776.192a4.17792 4.17792 0 0 1 3.28704 1.47456 4.92032 4.92032 0 0 1 1.2032 3.95776c-19.584 167.65952-164.45952 294.9632-332.7232 294.9632z" fill="#556FB5" p-id="2513"></path><path d="M972.34432 403.9168A399.95392 399.95392 0 0 0 619.52 51.64032a72.192 72.192 0 0 0-80.62464 71.54176l-0.11776 89.15456c-0.08704 59.60704-0.18944 128.48128-0.22016 198.656a72.2688 72.2688 0 0 0 72.192 72.13568c97.09568 0.09216 160.9216 0.512 212.21376 0.88064 27.32032 0.18944 51.96288 0.35328 77.3632 0.45056h0.2816a72.22784 72.22784 0 0 0 71.73632-80.54272z m-68.37248 11.42784a4.36224 4.36224 0 0 1-3.3792 1.536c-25.32864-0.09216-49.89952-0.26112-77.14816-0.45056a31657.32864 31657.32864 0 0 0-212.62848-0.89088 4.56192 4.56192 0 0 1-4.5824-4.52608c0-70.144 0.128-138.99264 0.22016-198.5792l0.11776-89.1904a4.29568 4.29568 0 0 1 1.50016-3.328 4.57216 4.57216 0 0 1 3.072-1.1776 5.2736 5.2736 0 0 1 0.59392 0.03584 332.58496 332.58496 0 0 1 293.376 292.93568 4.46464 4.46464 0 0 1-1.14176 3.6352z" fill="#F19149" p-id="2514"></path></svg>