<?xml version="1.0" standalone="no"?><!DOCTYPE svg PUBLIC "-//W3C//DTD SVG 1.1//EN" "http://www.w3.org/Graphics/SVG/1.1/DTD/svg11.dtd"><svg t="1588941624444" class="icon" viewBox="0 0 1024 1024" version="1.1" xmlns="http://www.w3.org/2000/svg" p-id="9398" xmlns:xlink="http://www.w3.org/1999/xlink" width="200" height="200"><defs><style type="text/css"></style></defs><path d="M512 0c282.752 0 512 229.248 512 512s-229.248 512-512 512S0 794.752 0 512 229.248 0 512 0z m0 938.666667c235.648 0 426.666667-191.018667 426.666667-426.666667S747.648 85.333333 512 85.333333 85.333333 276.352 85.333333 512s191.018667 426.666667 426.666667 426.666667z m-36.352-625.578667a45.226667 45.226667 0 0 1 21.077333-11.264l0.170667-0.085333a46.037333 46.037333 0 0 1 51.242667 9.386666l163.626666 163.669334a46.250667 46.250667 0 1 1-65.450666 65.450666L554.666667 448.554667V725.333333a42.666667 42.666667 0 0 1-85.333334 0v-274.986666l-91.861333 91.861333a46.336 46.336 0 0 1-65.450667-65.493333l163.626667-163.626667z" p-id="9399" fill="#bfbfbf"></path></svg>